<svg width="38" height="38" viewBox="0 0 38 38" fill="none" xmlns="http://www.w3.org/2000/svg">
  <rect y="7.9757" width="38" height="4.88904" rx="0.5" fill="#888" fill-opacity="0.2"/>
  <rect y="24.1757" width="38" height="4.88904" rx="0.5" fill="#888" fill-opacity="0.2"/>
  <rect width="37.6917" height="4.7521" rx="0.5" transform="matrix(0.153746 -0.988111 0.987252 0.159168 5.62963 37.2436)" fill="#888" fill-opacity="0.2"/>
  <rect width="37.6917" height="4.7521" rx="0.5" transform="matrix(0.153746 -0.988111 0.987252 0.159168 21.9259 37.2436)" fill="#888" fill-opacity="0.2"/>
  <!-- carbon:function Apache License 2.0 -->
  <path d="M9.13143 31.7232L7.97437 31.4561C7.43624 31.3318 7.10071 30.7949 7.22495 30.2567L7.80889 27.7274C7.91531 27.2665 8.33021 26.9431 8.80321 26.9526L8.88988 26.9543C10.5197 26.9836 12.6593 26.1667 13.5989 22.0968L13.8219 21.1307C13.9054 20.7693 13.7819 20.3913 13.5011 20.1489L10.6703 17.7045C10.3896 17.4621 10.2661 17.0841 10.3495 16.7227L10.6586 15.3841C10.742 15.0227 11.0187 14.7371 11.3773 14.6423L15.1501 13.6448C15.4122 13.5755 15.6144 13.3668 15.6754 13.1026C17.0944 6.95622 22.1943 3.94987 28.6686 5.44456L29.8256 5.71169C30.3638 5.83593 30.6993 6.37288 30.5751 6.91101L29.9911 9.44031C29.8847 9.90129 29.4698 10.2246 28.9968 10.2152L28.9101 10.2134C27.2803 10.1841 25.1407 11.0011 24.2011 15.0709C24.1401 15.3351 24.2304 15.6113 24.4356 15.7885L27.3892 18.3389C27.67 18.5814 27.7935 18.9593 27.71 19.3208L27.401 20.6593C27.3176 21.0208 27.0409 21.3063 26.6823 21.4012L23.0664 22.3572C22.7078 22.452 22.4311 22.7376 22.3477 23.099L22.1246 24.0651C20.7056 30.2115 15.6057 33.2179 9.13143 31.7232ZM9.68729 29.3155C9.667 29.4034 9.72305 29.4915 9.81117 29.5107C14.9905 30.6424 18.8839 28.3781 19.9932 23.573L20.5371 21.2174C20.6205 20.8559 20.8972 20.5704 21.2558 20.4755L23.3397 19.9245C24.1172 19.719 24.3463 18.7264 23.7377 18.2009L22.1062 16.7921C21.8254 16.5497 21.7019 16.1717 21.7854 15.8103L22.0697 14.5789C23.2345 9.53338 26.1026 8.25409 27.9754 7.97837C28.043 7.96842 28.0974 7.91878 28.1127 7.85224C28.133 7.76436 28.077 7.67627 27.9888 7.65702C22.8096 6.52533 18.9161 8.78963 17.8068 13.5947L17.5225 14.8261C17.4391 15.1876 17.1624 15.4731 16.8038 15.5679L14.7198 16.1189C13.9424 16.3245 13.7133 17.317 14.3219 17.8426L15.9534 19.2514C16.2341 19.4938 16.3576 19.8717 16.2742 20.2332L15.7303 22.5889C14.5655 27.6344 11.6974 28.9137 9.82458 29.1894C9.75702 29.1993 9.70265 29.249 9.68729 29.3155Z"
        fill="url(#function)"/>
  <rect x="24" y="31.5" width="10" height="2.5" rx="0.5" fill="#688D78"/>
  <rect x="31.5" y="24" width="2.5" height="10" rx="0.5" fill="#688D78"/>
  <rect x="4" y="3" width="2.5" height="10" rx="0.5" fill="#688D78"/>
  <rect x="4" y="3" width="10" height="2.5" rx="0.5" fill="#688D78"/>
  <linearGradient id="function" x1="0%" y1="100%" x2="100%" y2="0%">
    <stop offset="0%" style="stop-color: #18F; stop-opacity: 1" />
    <stop offset="100%" style="stop-color: #C66; stop-opacity: 1" />
  </linearGradient>
</svg>